<?xml version="1.0" standalone="no"?>
<!DOCTYPE svg PUBLIC "-//W3C//DTD SVG 20010904//EN"
 "http://www.w3.org/TR/2001/REC-SVG-20010904/DTD/svg10.dtd">
<svg version="1.0" xmlns="http://www.w3.org/2000/svg"
 width="132.000000pt" height="132.000000pt" viewBox="0 0 132.000000 132.000000"
 preserveAspectRatio="xMidYMid meet">
<metadata>
Created by potrace 1.11, written by Peter Selinger 2001-2013
</metadata>
<g transform="translate(0.000000,132.000000) scale(0.100000,-0.100000)"
fill="#000000" stroke="none">
<path d="M670 1305 c0 -12 -30 -21 -42 -13 -2 1 -14 -5 -28 -12 -14 -8 -28
-13 -32 -12 -4 1 -19 -5 -34 -13 -15 -8 -31 -12 -36 -9 -4 3 -8 -4 -8 -16 0
-11 -7 -23 -16 -27 -8 -3 -20 -17 -25 -30 -5 -15 -14 -21 -21 -17 -8 5 -9 2
-5 -9 3 -9 2 -19 -3 -22 -5 -3 -6 -15 -1 -28 6 -15 4 -29 -5 -41 -7 -11 -12
-22 -10 -25 2 -3 -6 -15 -17 -26 -11 -11 -16 -13 -12 -5 7 13 6 13 -7 2 -18
-14 -99 -19 -118 -7 -9 5 -11 4 -6 -4 4 -6 0 -14 -8 -17 -9 -3 -13 -10 -10
-15 3 -5 1 -9 -5 -9 -5 0 -9 -18 -9 -40 0 -22 5 -40 10 -40 5 0 6 -4 3 -10 -3
-5 -2 -10 4 -10 6 0 8 -6 5 -13 -2 -7 -17 -12 -32 -11 -47 2 -91 -21 -92 -49
0 -5 4 -6 9 -3 4 3 6 -6 3 -21 -3 -17 -1 -24 6 -19 14 8 22 -6 26 -48 2 -19 7
-40 11 -47 6 -8 4 -10 -6 -4 -12 7 -12 6 -1 -7 10 -13 10 -17 0 -21 -10 -4
-10 -6 0 -6 6 -1 12 -12 12 -26 0 -14 4 -25 9 -25 4 0 8 -19 8 -42 1 -24 2
-47 3 -53 1 -5 1 -12 0 -15 -7 -19 -5 -98 3 -93 6 4 7 1 2 -7 -9 -15 -10 -218
-1 -227 3 -3 1 -14 -5 -24 -7 -13 -6 -19 1 -19 7 0 8 -6 0 -19 -7 -14 -7 -22
0 -26 6 -4 8 -11 5 -16 -4 -5 179 -9 470 -9 308 0 474 3 470 10 -3 5 -1 19 6
31 8 16 8 20 0 14 -12 -7 -10 23 4 58 4 9 3 17 -3 17 -5 0 -13 7 -16 16 -3 8
-2 13 3 10 5 -3 11 1 15 9 3 8 0 15 -6 15 -7 0 -6 5 2 15 9 11 9 15 1 15 -12
0 -9 40 5 61 5 8 3 9 -6 4 -10 -6 -12 -4 -7 7 3 9 0 21 -6 27 -9 9 -8 11 7 5
16 -6 17 -4 8 13 -6 11 -9 22 -7 25 3 2 1 19 -4 36 -7 21 -6 34 1 38 7 5 8 2
3 -6 -6 -9 -4 -11 4 -6 9 6 8 13 -6 29 -10 11 -12 17 -5 13 6 -4 12 -3 12 1 0
5 -6 15 -12 22 -11 11 -10 12 1 6 11 -6 13 -4 8 8 -3 9 0 18 9 21 9 3 12 10 9
16 -3 5 -1 10 5 10 6 0 8 5 5 10 -3 6 -3 15 1 22 4 7 8 24 9 38 1 14 5 31 9
38 4 7 2 12 -5 12 -9 0 -9 3 0 14 8 9 8 16 2 20 -12 8 20 45 32 38 4 -2 7 19
6 46 -2 48 -3 50 -26 41 -15 -6 -23 -5 -23 2 0 6 -9 9 -20 6 -11 -3 -20 -1
-20 5 0 5 -3 7 -7 5 -5 -3 -13 1 -20 8 -7 8 -8 15 -4 17 9 3 14 34 12 76 -1
13 -5 20 -11 17 -5 -3 -10 0 -10 8 0 20 -69 15 -85 -6 -6 -9 -15 -14 -18 -10
-4 3 -7 1 -7 -6 0 -7 -5 -9 -10 -6 -6 4 -8 11 -5 16 4 5 0 9 -7 9 -8 0 -9 3
-3 8 12 8 14 47 3 58 -4 4 -3 13 3 20 8 10 8 15 -3 19 -9 4 -14 16 -12 30 1
14 -2 27 -7 31 -5 3 -9 12 -9 19 0 39 -133 149 -154 128 -3 -4 -6 -1 -6 6 0 7
-6 11 -13 8 -7 -3 -19 4 -25 14 -15 23 -62 26 -62 4z"/>
</g>
</svg>
